<svg data-v-423bf9ae="" xmlns="http://www.w3.org/2000/svg" viewBox="0 0 1064 90" class="iconLeft"><!----><!----><!----><g data-v-423bf9ae="" id="812b1660-2d94-45a3-bdf5-763b99419c08" fill="#1E1E24" transform="matrix(4.23131161556461,0,0,4.23131161556461,106.4457007688938,15.761636419089555)"><path d="M8.85 1.34L8.85 1.34L12.73 1.36L12.73 10.51L10.18 10.50L10.18 3.49L7.91 10.50L5.53 10.50L3.42 3.49L3.42 10.50L0.84 10.50L0.84 1.34L4.83 1.34L6.79 7.43L8.85 1.34ZM21.31 5.77L21.31 10.50L19.31 10.50L19.05 9.39L19.05 9.39Q18.61 10.05 18.06 10.35L18.06 10.35L18.06 10.35Q17.51 10.65 16.74 10.65L16.74 10.65L16.74 10.65Q16.20 10.65 15.70 10.52L15.70 10.52L15.70 10.52Q15.20 10.39 14.83 10.13L14.83 10.13L14.83 10.13Q14.45 9.87 14.22 9.48L14.22 9.48L14.22 9.48Q14 9.09 14 8.57L14 8.57L14 8.57Q13.99 7.87 14.20 7.39L14.20 7.39L14.20 7.39Q14.42 6.92 14.81 6.61L14.81 6.61L14.81 6.61Q15.19 6.30 15.69 6.13L15.69 6.13L15.69 6.13Q16.20 5.96 16.75 5.90L16.75 5.90L16.75 5.90Q17.30 5.84 17.87 5.84L17.87 5.84L17.87 5.84Q18.44 5.85 18.94 5.88L18.94 5.88L18.94 5.84L18.94 5.84Q18.94 5.29 18.66 5.03L18.66 5.03L18.66 5.03Q18.37 4.77 17.94 4.70L17.94 4.70L17.94 4.70Q17.51 4.63 17.00 4.71L17.00 4.71L17.00 4.71Q16.49 4.79 16.04 4.91L16.04 4.91L16.04 4.91Q15.60 5.04 15.27 5.17L15.27 5.17L15.27 5.17Q14.95 5.29 14.91 5.32L14.91 5.32L14.91 3.58L14.91 3.58Q14.92 3.57 15.18 3.49L15.18 3.49L15.18 3.49Q15.44 3.40 15.83 3.30L15.83 3.30L15.83 3.30Q16.23 3.21 16.70 3.12L16.70 3.12L16.70 3.12Q17.18 3.04 17.64 3.04L17.64 3.04L17.64 3.04Q18.10 3.04 18.73 3.15L18.73 3.15L18.73 3.15Q19.36 3.26 19.94 3.56L19.94 3.56L19.94 3.56Q20.51 3.86 20.91 4.40L20.91 4.40L20.91 4.40Q21.31 4.93 21.31 5.77L21.31 5.77ZM18.93 7.52L18.93 7.25L18.93 7.25Q18.47 7.25 18.01 7.26L18.01 7.26L18.01 7.26Q17.56 7.27 17.19 7.34L17.19 7.34L17.19 7.34Q16.81 7.42 16.59 7.61L16.59 7.61L16.59 7.61Q16.37 7.80 16.37 8.16L16.37 8.16L16.37 8.16Q16.37 8.55 16.60 8.77L16.60 8.77L16.60 8.77Q16.84 8.99 17.14 8.99L17.14 8.99L17.14 8.99Q17.53 8.99 17.86 8.88L17.86 8.88L17.86 8.88Q18.19 8.76 18.42 8.56L18.42 8.56L18.42 8.56Q18.66 8.36 18.80 8.09L18.80 8.09L18.80 8.09Q18.93 7.83 18.93 7.52L18.93 7.52ZM26.26 8.67L26.26 8.67L26.26 8.67Q26.32 8.67 26.49 8.68L26.49 8.68L26.49 8.68Q26.66 8.69 26.80 8.67L26.80 8.67L26.80 10.56L26.80 10.56Q26.60 10.60 26.40 10.62L26.40 10.62L26.40 10.62Q26.21 10.64 26.05 10.65L26.05 10.65L26.05 10.65Q25.87 10.67 25.69 10.65L25.69 10.65L25.69 10.65Q25.16 10.65 24.69 10.58L24.69 10.58L24.69 10.58Q24.22 10.50 23.86 10.23L23.86 10.23L23.86 10.23Q23.51 9.97 23.30 9.46L23.30 9.46L23.30 9.46Q23.09 8.96 23.09 8.09L23.09 8.09L23.09 1.55L25.61 1.55L25.61 8.04L25.61 8.04Q25.63 8.39 25.80 8.53L25.80 8.53L25.80 8.53Q25.96 8.67 26.26 8.67ZM31.16 10.50L28.64 10.50L28.64 3.22L31.16 3.22L31.16 10.50ZM31.15 1.04L31.15 1.04L31.15 1.04Q31.15 1.30 31.05 1.53L31.05 1.53L31.05 1.53Q30.95 1.76 30.79 1.93L30.79 1.93L30.79 1.93Q30.62 2.10 30.39 2.20L30.39 2.20L30.39 2.20Q30.17 2.30 29.92 2.30L29.92 2.30L29.92 2.30Q29.39 2.30 29.02 1.93L29.02 1.93L29.02 1.93Q28.66 1.57 28.66 1.04L28.66 1.04L28.66 1.04Q28.66 0.78 28.76 0.56L28.76 0.56L28.76 0.56Q28.85 0.34 29.02 0.17L29.02 0.17L29.02 0.17Q29.19 0.01 29.42-0.08L29.42-0.08L29.42-0.08Q29.65-0.18 29.92-0.18L29.92-0.18L29.92-0.18Q30.42-0.18 30.79 0.17L30.79 0.17L30.79 0.17Q31.15 0.53 31.15 1.04ZM40.59 3.22L38.01 6.99L38.01 6.99Q38.30 7.39 38.64 7.84L38.64 7.84L38.64 7.84Q38.98 8.29 39.32 8.75L39.32 8.75L39.32 8.75Q39.66 9.21 39.99 9.66L39.99 9.66L39.99 9.66Q40.32 10.11 40.61 10.50L40.61 10.50L37.83 10.50L36.01 8.08L35.48 8.08L35.48 10.50L33.00 10.50L33.00 1.34L35.48 1.34L35.48 5.89L35.99 5.89L35.99 5.89Q35.99 5.89 36.13 5.70L36.13 5.70L36.13 5.70Q36.27 5.50 36.48 5.20L36.48 5.20L36.48 5.20Q36.68 4.90 36.92 4.56L36.92 4.56L36.92 4.56Q37.16 4.21 37.35 3.91L37.35 3.91L37.35 3.91Q37.55 3.61 37.69 3.42L37.69 3.42L37.69 3.42Q37.83 3.22 37.83 3.22L37.83 3.22L40.59 3.22ZM48.50 6.76L48.50 10.50L45.88 10.50L45.88 1.34L52.51 1.34L52.21 3.21L48.50 3.21L48.50 4.90L52.21 4.90L52.21 6.76L48.50 6.76ZM57.83 10.65L57.83 10.65L57.83 10.65Q56.50 10.65 55.64 10.31L55.64 10.31L55.64 10.31Q54.77 9.97 54.26 9.43L54.26 9.43L54.26 9.43Q53.75 8.89 53.54 8.21L53.54 8.21L53.54 8.21Q53.34 7.53 53.34 6.86L53.34 6.86L53.34 6.86Q53.34 6.19 53.54 5.51L53.54 5.51L53.54 5.51Q53.75 4.83 54.20 4.28L54.20 4.28L54.20 4.28Q54.66 3.72 55.39 3.38L55.39 3.38L55.39 3.38Q56.13 3.04 57.18 3.04L57.18 3.04L57.18 3.04Q58.25 3.04 58.98 3.38L58.98 3.38L58.98 3.38Q59.71 3.72 60.14 4.28L60.14 4.28L60.14 4.28Q60.58 4.83 60.76 5.51L60.76 5.51L60.76 5.51Q60.94 6.19 60.94 6.86L60.94 6.86L60.94 7.56L55.90 7.56L55.90 7.56Q55.92 7.73 56.04 7.97L56.04 7.97L56.04 7.97Q56.15 8.22 56.41 8.44L56.41 8.44L56.41 8.44Q56.66 8.65 57.06 8.81L57.06 8.81L57.06 8.81Q57.46 8.96 58.03 8.96L58.03 8.96L58.03 8.96Q58.56 8.96 59.00 8.87L59.00 8.87L59.00 8.87Q59.44 8.78 59.75 8.67L59.75 8.67L59.75 8.67Q60.12 8.53 60.38 8.36L60.38 8.36L60.38 10.07L60.38 10.07Q60.38 10.08 60.16 10.17L60.16 10.17L60.16 10.17Q59.95 10.26 59.59 10.37L59.59 10.37L59.59 10.37Q59.23 10.47 58.77 10.56L58.77 10.56L58.77 10.56Q58.31 10.65 57.83 10.65ZM55.90 6.13L58.67 6.13L58.67 6.13Q58.67 5.89 58.60 5.63L58.60 5.63L58.60 5.63Q58.53 5.36 58.37 5.14L58.37 5.14L58.37 5.14Q58.20 4.91 57.93 4.77L57.93 4.77L57.93 4.77Q57.67 4.62 57.27 4.62L57.27 4.62L57.27 4.62Q56.88 4.62 56.62 4.77L56.62 4.77L56.62 4.77Q56.35 4.91 56.20 5.14L56.20 5.14L56.20 5.14Q56.04 5.36 55.97 5.63L55.97 5.63L55.97 5.63Q55.90 5.89 55.90 6.13L55.90 6.13ZM65.76 8.67L65.76 8.67L65.76 8.67Q65.81 8.67 65.98 8.68L65.98 8.68L65.98 8.68Q66.15 8.69 66.29 8.67L66.29 8.67L66.29 10.56L66.29 10.56Q66.09 10.60 65.90 10.62L65.90 10.62L65.90 10.62Q65.70 10.64 65.55 10.65L65.55 10.65L65.55 10.65Q65.37 10.67 65.18 10.65L65.18 10.65L65.18 10.65Q64.65 10.65 64.18 10.58L64.18 10.58L64.18 10.58Q63.71 10.50 63.36 10.23L63.36 10.23L63.36 10.23Q63 9.97 62.79 9.46L62.79 9.46L62.79 9.46Q62.58 8.96 62.58 8.09L62.58 8.09L62.58 1.55L65.10 1.55L65.10 8.04L65.10 8.04Q65.13 8.39 65.29 8.53L65.29 8.53L65.29 8.53Q65.45 8.67 65.76 8.67ZM70.66 10.50L68.14 10.50L68.14 3.22L70.66 3.22L70.66 10.50ZM70.64 1.04L70.64 1.04L70.64 1.04Q70.64 1.30 70.55 1.53L70.55 1.53L70.55 1.53Q70.45 1.76 70.28 1.93L70.28 1.93L70.28 1.93Q70.11 2.10 69.89 2.20L69.89 2.20L69.89 2.20Q69.66 2.30 69.41 2.30L69.41 2.30L69.41 2.30Q68.88 2.30 68.52 1.93L68.52 1.93L68.52 1.93Q68.15 1.57 68.15 1.04L68.15 1.04L68.15 1.04Q68.15 0.78 68.25 0.56L68.25 0.56L68.25 0.56Q68.35 0.34 68.52 0.17L68.52 0.17L68.52 0.17Q68.68 0.01 68.92-0.08L68.92-0.08L68.92-0.08Q69.15-0.18 69.41-0.18L69.41-0.18L69.41-0.18Q69.92-0.18 70.28 0.17L70.28 0.17L70.28 0.17Q70.64 0.53 70.64 1.04ZM71.85 10.50L74.31 6.72L72.02 3.22L75.01 3.22L75.94 5.39L75.94 5.39Q75.94 5.39 75.99 5.30L75.99 5.30L75.99 5.30Q76.05 5.21 76.14 5.06L76.14 5.06L76.14 5.06Q76.23 4.91 76.34 4.72L76.34 4.72L76.34 4.72Q76.45 4.52 76.58 4.31L76.58 4.31L77.22 3.22L80.00 3.22L77.70 6.72L80.16 10.50L77.10 10.50L75.91 8.23L75.91 8.23Q75.91 8.25 75.72 8.60L75.72 8.60L75.72 8.60Q75.53 8.95 75.29 9.37L75.29 9.37L75.29 9.37Q75.03 9.86 74.68 10.50L74.68 10.50L71.85 10.50ZM85.25 0L87.01 0L87.01 14L85.25 14L85.25 0ZM98.97 2.25L98.21 4.16L98.21 4.16Q97.62 3.75 97.02 3.50L97.02 3.50L97.02 3.50Q96.42 3.25 95.93 3.25L95.93 3.25L95.93 3.25Q95.48 3.25 95.27 3.35L95.27 3.35L95.27 3.35Q95.06 3.46 95.06 3.82L95.06 3.82L95.06 3.82Q95.06 4.23 95.42 4.44L95.42 4.44L95.42 4.44Q95.79 4.65 96.38 4.84L96.38 4.84L96.38 4.84Q96.87 5.01 97.37 5.21L97.37 5.21L97.37 5.21Q97.87 5.42 98.28 5.75L98.28 5.75L98.28 5.75Q98.69 6.08 98.94 6.58L98.94 6.58L98.94 6.58Q99.19 7.08 99.19 7.84L99.19 7.84L99.19 7.84Q99.19 8.57 98.91 9.10L98.91 9.10L98.91 9.10Q98.63 9.63 98.17 9.97L98.17 9.97L98.17 9.97Q97.71 10.32 97.11 10.49L97.11 10.49L97.11 10.49Q96.52 10.65 95.87 10.65L95.87 10.65L95.87 10.65Q94.96 10.65 94.05 10.27L94.05 10.27L94.05 10.27Q93.14 9.88 92.44 9.13L92.44 9.13L93.25 7.24L93.25 7.24Q93.90 7.90 94.56 8.26L94.56 8.26L94.56 8.26Q95.23 8.62 95.83 8.62L95.83 8.62L95.83 8.62Q96.33 8.62 96.66 8.50L96.66 8.50L96.66 8.50Q96.98 8.37 96.99 7.97L96.99 7.97L96.99 7.97Q96.99 7.73 96.89 7.57L96.89 7.57L96.89 7.57Q96.78 7.41 96.59 7.30L96.59 7.30L96.59 7.30Q96.40 7.20 96.14 7.11L96.14 7.11L96.14 7.11Q95.87 7.03 95.58 6.93L95.58 6.93L95.58 6.93Q95.09 6.76 94.61 6.55L94.61 6.55L94.61 6.55Q94.12 6.34 93.73 6.00L93.73 6.00L93.73 6.00Q93.34 5.66 93.10 5.16L93.10 5.16L93.10 5.16Q92.86 4.66 92.86 3.93L92.86 3.93L92.86 3.93Q92.86 3.21 93.13 2.69L93.13 2.69L93.13 2.69Q93.39 2.17 93.83 1.84L93.83 1.84L93.83 1.84Q94.26 1.51 94.83 1.36L94.83 1.36L94.83 1.36Q95.40 1.20 96.00 1.20L96.00 1.20L96.00 1.20Q96.77 1.20 97.54 1.48L97.54 1.48L97.54 1.48Q98.31 1.76 98.97 2.25L98.97 2.25ZM104.36 3.04L104.36 3.04L104.36 3.04Q104.99 3.04 105.74 3.21L105.74 3.21L105.74 3.21Q106.50 3.39 107.15 3.83L107.15 3.83L107.15 3.83Q107.80 4.27 108.23 5.01L108.23 5.01L108.23 5.01Q108.67 5.75 108.67 6.89L108.67 6.89L108.67 6.89Q108.67 8.02 108.23 8.75L108.23 8.75L108.23 8.75Q107.80 9.48 107.15 9.90L107.15 9.90L107.15 9.90Q106.50 10.32 105.74 10.49L105.74 10.49L105.74 10.49Q104.99 10.65 104.36 10.65L104.36 10.65L104.36 10.65Q103.73 10.65 102.98 10.49L102.98 10.49L102.98 10.49Q102.24 10.32 101.61 9.90L101.61 9.90L101.61 9.90Q100.97 9.48 100.53 8.75L100.53 8.75L100.53 8.75Q100.10 8.02 100.10 6.89L100.10 6.89L100.10 6.89Q100.10 6.13 100.30 5.56L100.30 5.56L100.30 5.56Q100.51 4.98 100.84 4.56L100.84 4.56L100.84 4.56Q101.16 4.13 101.61 3.84L101.61 3.84L101.61 3.84Q102.05 3.54 102.52 3.37L102.52 3.37L102.52 3.37Q102.98 3.19 103.46 3.12L103.46 3.12L103.46 3.12Q103.94 3.04 104.36 3.04ZM104.36 8.90L104.36 8.90L104.36 8.90Q105.13 8.90 105.57 8.46L105.57 8.46L105.57 8.46Q106.02 8.01 106.02 6.89L106.02 6.89L106.02 6.89Q106.02 5.75 105.58 5.27L105.58 5.27L105.58 5.27Q105.14 4.79 104.36 4.79L104.36 4.79L104.36 4.79Q103.57 4.79 103.16 5.27L103.16 5.27L103.16 5.27Q102.75 5.75 102.75 6.89L102.75 6.89L102.75 6.89Q102.75 8.01 103.16 8.46L103.16 8.46L103.16 8.46Q103.57 8.90 104.36 8.90ZM114.94 3.19L114.94 3.19L114.94 3.19Q114.73 3.14 114.45 3.13L114.45 3.13L114.45 3.13Q114.17 3.12 113.92 3.21L113.92 3.21L113.92 3.21Q113.67 3.29 113.49 3.49L113.49 3.49L113.49 3.49Q113.32 3.70 113.32 4.05L113.32 4.05L115.08 4.05L114.87 5.81L113.30 5.81L113.30 10.50L110.80 10.50L110.80 5.81L109.27 5.81L109.28 4.05L110.84 4.05L110.85 3.51L110.85 3.51Q110.88 2.91 111.15 2.50L111.15 2.50L111.15 2.50Q111.41 2.09 111.82 1.83L111.82 1.83L111.82 1.83Q112.22 1.57 112.71 1.46L112.71 1.46L112.71 1.46Q113.20 1.34 113.67 1.34L113.67 1.34L113.67 1.34Q113.97 1.34 114.24 1.36L114.24 1.36L114.24 1.36Q114.51 1.37 114.70 1.40L114.70 1.40L114.70 1.40Q114.94 1.43 115.14 1.46L115.14 1.46L114.94 3.19ZM120.06 8.97L120.06 8.97L120.06 8.97Q120.26 8.97 120.46 8.96L120.46 8.96L120.46 8.96Q120.65 8.95 120.81 8.92L120.81 8.92L120.81 8.92Q120.99 8.89 121.16 8.85L121.16 8.85L121.13 10.43L121.13 10.43Q120.89 10.49 120.62 10.54L120.62 10.54L120.62 10.54Q120.39 10.58 120.07 10.62L120.07 10.62L120.07 10.62Q119.76 10.65 119.39 10.65L119.39 10.65L119.39 10.65Q118.69 10.61 118.13 10.36L118.13 10.36L118.13 10.36Q117.89 10.25 117.67 10.08L117.67 10.08L117.67 10.08Q117.45 9.91 117.27 9.66L117.27 9.66L117.27 9.66Q117.10 9.41 116.99 9.08L116.99 9.08L116.99 9.08Q116.89 8.75 116.89 8.30L116.89 8.30L116.89 5.53L115.46 5.53L115.46 3.75L116.93 3.75L117.38 1.46L119.39 1.46L119.39 3.75L121.18 3.75L121.18 5.53L119.42 5.53L119.42 8.33L119.42 8.33Q119.45 8.68 119.61 8.83L119.61 8.83L119.61 8.83Q119.77 8.97 120.06 8.97ZM132.10 3.22L134.58 3.22L132.34 10.50L129.37 10.50L128.18 5.21L126.74 10.50L123.82 10.50L121.60 3.22L124.21 3.22L125.40 8.53L126.67 3.22L129.72 3.22L130.96 8.53L130.96 8.53Q130.96 8.53 131.04 8.13L131.04 8.13L131.04 8.13Q131.12 7.74 131.25 7.15L131.25 7.15L131.25 7.15Q131.38 6.57 131.52 5.88L131.52 5.88L131.52 5.88Q131.67 5.19 131.80 4.61L131.80 4.61L131.80 4.61Q131.94 4.02 132.02 3.62L132.02 3.62L132.02 3.62Q132.10 3.22 132.10 3.22L132.10 3.22ZM142.53 5.77L142.53 10.50L140.53 10.50L140.28 9.39L140.28 9.39Q139.83 10.05 139.29 10.35L139.29 10.35L139.29 10.35Q138.74 10.65 137.97 10.65L137.97 10.65L137.97 10.65Q137.42 10.65 136.93 10.52L136.93 10.52L136.93 10.52Q136.43 10.39 136.05 10.13L136.05 10.13L136.05 10.13Q135.67 9.87 135.45 9.48L135.45 9.48L135.45 9.48Q135.23 9.09 135.23 8.57L135.23 8.57L135.23 8.57Q135.21 7.87 135.43 7.39L135.43 7.39L135.43 7.39Q135.65 6.92 136.03 6.61L136.03 6.61L136.03 6.61Q136.42 6.30 136.92 6.13L136.92 6.13L136.92 6.13Q137.42 5.96 137.98 5.90L137.98 5.90L137.98 5.90Q138.53 5.84 139.10 5.84L139.10 5.84L139.10 5.84Q139.66 5.85 140.17 5.88L140.17 5.88L140.17 5.84L140.17 5.84Q140.17 5.29 139.88 5.03L139.88 5.03L139.88 5.03Q139.59 4.77 139.17 4.70L139.17 4.70L139.17 4.70Q138.74 4.63 138.23 4.71L138.23 4.71L138.23 4.71Q137.72 4.79 137.27 4.91L137.27 4.91L137.27 4.91Q136.82 5.04 136.50 5.17L136.50 5.17L136.50 5.17Q136.18 5.29 136.14 5.32L136.14 5.32L136.14 3.58L136.14 3.58Q136.15 3.57 136.41 3.49L136.41 3.49L136.41 3.49Q136.67 3.40 137.06 3.30L137.06 3.30L137.06 3.30Q137.45 3.21 137.93 3.12L137.93 3.12L137.93 3.12Q138.40 3.04 138.87 3.04L138.87 3.04L138.87 3.04Q139.33 3.04 139.96 3.15L139.96 3.15L139.96 3.15Q140.59 3.26 141.16 3.56L141.16 3.56L141.16 3.56Q141.74 3.86 142.13 4.40L142.13 4.40L142.13 4.40Q142.53 4.93 142.53 5.77L142.53 5.77ZM140.15 7.52L140.15 7.25L140.15 7.25Q139.69 7.25 139.24 7.26L139.24 7.26L139.24 7.26Q138.78 7.27 138.41 7.34L138.41 7.34L138.41 7.34Q138.04 7.42 137.82 7.61L137.82 7.61L137.82 7.61Q137.59 7.80 137.59 8.16L137.59 8.16L137.59 8.16Q137.59 8.55 137.83 8.77L137.83 8.77L137.83 8.77Q138.07 8.99 138.36 8.99L138.36 8.99L138.36 8.99Q138.75 8.99 139.08 8.88L139.08 8.88L139.08 8.88Q139.41 8.76 139.65 8.56L139.65 8.56L139.65 8.56Q139.89 8.36 140.02 8.09L140.02 8.09L140.02 8.09Q140.15 7.83 140.15 7.52L140.15 7.52ZM149.23 3.04L149.10 5.22L149.10 5.22Q148.29 5.04 147.78 5.24L147.78 5.24L147.78 5.24Q147.28 5.43 146.99 5.81L146.99 5.81L146.99 5.81Q146.71 6.19 146.60 6.64L146.60 6.64L146.60 6.64Q146.50 7.10 146.50 7.41L146.50 7.41L146.50 10.50L144.00 10.50L144.00 3.22L145.92 3.22L146.30 4.55L146.30 4.55Q146.30 4.55 146.43 4.31L146.43 4.31L146.43 4.31Q146.55 4.07 146.89 3.79L146.89 3.79L146.89 3.79Q147.22 3.51 147.79 3.28L147.79 3.28L147.79 3.28Q148.36 3.04 149.23 3.04L149.23 3.04ZM154.21 10.65L154.21 10.65L154.21 10.65Q152.88 10.65 152.01 10.31L152.01 10.31L152.01 10.31Q151.14 9.97 150.63 9.43L150.63 9.43L150.63 9.43Q150.12 8.89 149.92 8.21L149.92 8.21L149.92 8.21Q149.72 7.53 149.72 6.86L149.72 6.86L149.72 6.86Q149.72 6.19 149.92 5.51L149.92 5.51L149.92 5.51Q150.12 4.83 150.58 4.28L150.58 4.28L150.58 4.28Q151.03 3.72 151.77 3.38L151.77 3.38L151.77 3.38Q152.50 3.04 153.55 3.04L153.55 3.04L153.55 3.04Q154.63 3.04 155.36 3.38L155.36 3.38L155.36 3.38Q156.09 3.72 156.52 4.28L156.52 4.28L156.52 4.28Q156.95 4.83 157.14 5.51L157.14 5.51L157.14 5.51Q157.32 6.19 157.32 6.86L157.32 6.86L157.32 7.56L152.28 7.56L152.28 7.56Q152.29 7.73 152.41 7.97L152.41 7.97L152.41 7.97Q152.53 8.22 152.78 8.44L152.78 8.44L152.78 8.44Q153.03 8.65 153.43 8.81L153.43 8.81L153.43 8.81Q153.83 8.96 154.41 8.96L154.41 8.96L154.41 8.96Q154.94 8.96 155.38 8.87L155.38 8.87L155.38 8.87Q155.82 8.78 156.13 8.67L156.13 8.67L156.13 8.67Q156.49 8.53 156.76 8.36L156.76 8.36L156.76 10.07L156.76 10.07Q156.76 10.08 156.54 10.17L156.54 10.17L156.54 10.17Q156.32 10.26 155.97 10.37L155.97 10.37L155.97 10.37Q155.61 10.47 155.15 10.56L155.15 10.56L155.15 10.56Q154.69 10.65 154.21 10.65ZM152.28 6.13L155.05 6.13L155.05 6.13Q155.05 5.89 154.98 5.63L154.98 5.63L154.98 5.63Q154.91 5.36 154.74 5.14L154.74 5.14L154.74 5.14Q154.57 4.91 154.31 4.77L154.31 4.77L154.31 4.77Q154.04 4.62 153.65 4.62L153.65 4.62L153.65 4.62Q153.26 4.62 152.99 4.77L152.99 4.77L152.99 4.77Q152.73 4.91 152.57 5.14L152.57 5.14L152.57 5.14Q152.42 5.36 152.35 5.63L152.35 5.63L152.35 5.63Q152.28 5.89 152.28 6.13L152.28 6.13ZM165.61 6.76L165.61 8.65L169.76 8.65L169.76 10.50L163.02 10.50L162.99 1.34L169.62 1.34L169.33 3.21L165.61 3.21L165.61 4.90L169.47 4.90L169.47 6.76L165.61 6.76ZM175.87 3.04L175.87 3.04L175.87 3.04Q176.43 3.04 176.98 3.15L176.98 3.15L176.98 3.15Q177.53 3.26 177.98 3.61L177.98 3.61L177.98 3.61Q178.42 3.96 178.70 4.61L178.70 4.61L178.70 4.61Q178.98 5.26 178.98 6.33L178.98 6.33L178.98 10.50L176.64 10.50L176.64 7.17L176.64 7.17Q176.64 6.13 176.30 5.59L176.30 5.59L176.30 5.59Q175.97 5.05 175.34 5.05L175.34 5.05L175.34 5.05Q174.89 5.05 174.58 5.25L174.58 5.25L174.58 5.25Q174.27 5.45 174.08 5.80L174.08 5.80L174.08 5.80Q173.89 6.15 173.81 6.62L173.81 6.62L173.81 6.62Q173.73 7.08 173.73 7.64L173.73 7.64L173.73 10.50L171.21 10.50L171.21 3.22L173.10 3.22L173.52 4.56L173.52 4.56Q173.52 4.56 173.64 4.33L173.64 4.33L173.64 4.33Q173.77 4.09 174.05 3.80L174.05 3.80L174.05 3.80Q174.33 3.51 174.78 3.28L174.78 3.28L174.78 3.28Q175.22 3.04 175.87 3.04ZM186.13 3.25L188.24 3.25L188.24 9.86L188.24 9.86Q188.24 10.54 188.03 11.16L188.03 11.16L188.03 11.16Q187.82 11.79 187.31 12.26L187.31 12.26L187.31 12.26Q186.79 12.73 185.93 13.01L185.93 13.01L185.93 13.01Q185.07 13.29 183.75 13.29L183.75 13.29L183.75 13.29Q183.20 13.29 182.71 13.21L182.71 13.21L182.71 13.21Q182.22 13.13 181.86 13.03L181.86 13.03L181.86 13.03Q181.43 12.92 181.05 12.77L181.05 12.77L181.19 10.91L181.19 10.91Q181.57 11.06 181.99 11.17L181.99 11.17L181.99 11.17Q182.35 11.28 182.81 11.36L182.81 11.36L182.81 11.36Q183.26 11.44 183.75 11.44L183.75 11.44L183.75 11.44Q184.56 11.44 185.00 11.16L185.00 11.16L185.00 11.16Q185.44 10.89 185.65 10.52L185.65 10.52L185.65 10.52Q185.85 10.15 185.88 9.79L185.88 9.79L185.88 9.79Q185.91 9.42 185.91 9.25L185.91 9.25L185.91 9.25Q185.91 9.25 185.75 9.44L185.75 9.44L185.75 9.44Q185.60 9.63 185.31 9.87L185.31 9.87L185.31 9.87Q185.02 10.11 184.59 10.30L184.59 10.30L184.59 10.30Q184.16 10.50 183.60 10.50L183.60 10.50L183.60 10.50Q182.97 10.50 182.36 10.31L182.36 10.31L182.36 10.31Q181.75 10.12 181.26 9.68L181.26 9.68L181.26 9.68Q180.77 9.24 180.47 8.53L180.47 8.53L180.47 8.53Q180.17 7.81 180.17 6.78L180.17 6.78L180.17 6.78Q180.17 5.74 180.44 5.03L180.44 5.03L180.44 5.03Q180.71 4.31 181.18 3.87L181.18 3.87L181.18 3.87Q181.65 3.43 182.27 3.23L182.27 3.23L182.27 3.23Q182.90 3.04 183.60 3.04L183.60 3.04L183.60 3.04Q184.32 3.04 184.79 3.27L184.79 3.27L184.79 3.27Q185.25 3.50 185.51 3.78L185.51 3.78L185.51 3.78Q185.77 4.06 185.86 4.29L185.86 4.29L185.86 4.29Q185.96 4.52 185.96 4.52L185.96 4.52L186.13 3.25ZM185.81 6.76L185.81 6.76L185.81 6.76Q185.81 6.27 185.68 5.92L185.68 5.92L185.68 5.92Q185.56 5.57 185.35 5.35L185.35 5.35L185.35 5.35Q185.14 5.14 184.86 5.04L184.86 5.04L184.86 5.04Q184.58 4.94 184.28 4.94L184.28 4.94L184.28 4.94Q183.99 4.94 183.72 5.04L183.72 5.04L183.72 5.04Q183.44 5.14 183.23 5.36L183.23 5.36L183.23 5.36Q183.02 5.59 182.90 5.93L182.90 5.93L182.90 5.93Q182.77 6.27 182.77 6.76L182.77 6.76L182.77 6.76Q182.77 7.25 182.90 7.59L182.90 7.59L182.90 7.59Q183.02 7.94 183.23 8.15L183.23 8.15L183.23 8.15Q183.44 8.37 183.72 8.47L183.72 8.47L183.72 8.47Q183.99 8.57 184.28 8.57L184.28 8.57L184.28 8.57Q184.58 8.57 184.86 8.47L184.86 8.47L184.86 8.47Q185.14 8.37 185.35 8.15L185.35 8.15L185.35 8.15Q185.56 7.94 185.68 7.59L185.68 7.59L185.68 7.59Q185.81 7.25 185.81 6.76ZM192.65 10.50L190.13 10.50L190.13 3.22L192.65 3.22L192.65 10.50ZM192.64 1.04L192.64 1.04L192.64 1.04Q192.64 1.30 192.54 1.53L192.54 1.53L192.54 1.53Q192.44 1.76 192.28 1.93L192.28 1.93L192.28 1.93Q192.11 2.10 191.88 2.20L191.88 2.20L191.88 2.20Q191.66 2.30 191.41 2.30L191.41 2.30L191.41 2.30Q190.88 2.30 190.51 1.93L190.51 1.93L190.51 1.93Q190.15 1.57 190.15 1.04L190.15 1.04L190.15 1.04Q190.15 0.78 190.25 0.56L190.25 0.56L190.25 0.56Q190.34 0.34 190.51 0.17L190.51 0.17L190.51 0.17Q190.68 0.01 190.91-0.08L190.91-0.08L190.91-0.08Q191.14-0.18 191.41-0.18L191.41-0.18L191.41-0.18Q191.91-0.18 192.28 0.17L192.28 0.17L192.28 0.17Q192.64 0.53 192.64 1.04ZM199.14 3.04L199.14 3.04L199.14 3.04Q199.70 3.04 200.25 3.15L200.25 3.15L200.25 3.15Q200.80 3.26 201.24 3.61L201.24 3.61L201.24 3.61Q201.68 3.96 201.96 4.61L201.96 4.61L201.96 4.61Q202.24 5.26 202.24 6.33L202.24 6.33L202.24 10.50L199.91 10.50L199.91 7.17L199.91 7.17Q199.91 6.13 199.57 5.59L199.57 5.59L199.57 5.59Q199.23 5.05 198.60 5.05L198.60 5.05L198.60 5.05Q198.16 5.05 197.85 5.25L197.85 5.25L197.85 5.25Q197.54 5.45 197.35 5.80L197.35 5.80L197.35 5.80Q197.16 6.15 197.08 6.62L197.08 6.62L197.08 6.62Q196.99 7.08 196.99 7.64L196.99 7.64L196.99 10.50L194.47 10.50L194.47 3.22L196.36 3.22L196.78 4.56L196.78 4.56Q196.78 4.56 196.91 4.33L196.91 4.33L196.91 4.33Q197.04 4.09 197.32 3.80L197.32 3.80L197.32 3.80Q197.60 3.51 198.04 3.28L198.04 3.28L198.04 3.28Q198.49 3.04 199.14 3.04ZM207.93 10.65L207.93 10.65L207.93 10.65Q206.60 10.65 205.73 10.31L205.73 10.31L205.73 10.31Q204.86 9.97 204.35 9.43L204.35 9.43L204.35 9.43Q203.84 8.89 203.64 8.21L203.64 8.21L203.64 8.21Q203.43 7.53 203.43 6.86L203.43 6.86L203.43 6.86Q203.43 6.19 203.64 5.51L203.64 5.51L203.64 5.51Q203.84 4.83 204.30 4.28L204.30 4.28L204.30 4.28Q204.75 3.72 205.49 3.38L205.49 3.38L205.49 3.38Q206.22 3.04 207.27 3.04L207.27 3.04L207.27 3.04Q208.35 3.04 209.08 3.38L209.08 3.38L209.08 3.38Q209.80 3.72 210.24 4.28L210.24 4.28L210.24 4.28Q210.67 4.83 210.85 5.51L210.85 5.51L210.85 5.51Q211.04 6.19 211.04 6.86L211.04 6.86L211.04 7.56L206.00 7.56L206.00 7.56Q206.01 7.73 206.13 7.97L206.13 7.97L206.13 7.97Q206.25 8.22 206.50 8.44L206.50 8.44L206.50 8.44Q206.75 8.65 207.15 8.81L207.15 8.81L207.15 8.81Q207.55 8.96 208.12 8.96L208.12 8.96L208.12 8.96Q208.66 8.96 209.10 8.87L209.10 8.87L209.10 8.87Q209.54 8.78 209.85 8.67L209.85 8.67L209.85 8.67Q210.21 8.53 210.48 8.36L210.48 8.36L210.48 10.07L210.48 10.07Q210.48 10.08 210.26 10.17L210.26 10.17L210.26 10.17Q210.04 10.26 209.69 10.37L209.69 10.37L209.69 10.37Q209.33 10.47 208.87 10.56L208.87 10.56L208.87 10.56Q208.40 10.65 207.93 10.65ZM206.00 6.13L208.77 6.13L208.77 6.13Q208.77 5.89 208.70 5.63L208.70 5.63L208.70 5.63Q208.63 5.36 208.46 5.14L208.46 5.14L208.46 5.14Q208.29 4.91 208.03 4.77L208.03 4.77L208.03 4.77Q207.76 4.62 207.37 4.62L207.37 4.62L207.37 4.62Q206.98 4.62 206.71 4.77L206.71 4.77L206.71 4.77Q206.44 4.91 206.29 5.14L206.29 5.14L206.29 5.14Q206.14 5.36 206.07 5.63L206.07 5.63L206.07 5.63Q206.00 5.89 206.00 6.13L206.00 6.13ZM216.51 10.65L216.51 10.65L216.51 10.65Q215.18 10.65 214.31 10.31L214.31 10.31L214.31 10.31Q213.44 9.97 212.93 9.43L212.93 9.43L212.93 9.43Q212.42 8.89 212.22 8.21L212.22 8.21L212.22 8.21Q212.02 7.53 212.02 6.86L212.02 6.86L212.02 6.86Q212.02 6.19 212.22 5.51L212.22 5.51L212.22 5.51Q212.42 4.83 212.88 4.28L212.88 4.28L212.88 4.28Q213.33 3.72 214.07 3.38L214.07 3.38L214.07 3.38Q214.80 3.04 215.85 3.04L215.85 3.04L215.85 3.04Q216.93 3.04 217.66 3.38L217.66 3.38L217.66 3.38Q218.39 3.72 218.82 4.28L218.82 4.28L218.82 4.28Q219.25 4.83 219.44 5.51L219.44 5.51L219.44 5.51Q219.62 6.19 219.62 6.86L219.62 6.86L219.62 7.56L214.58 7.56L214.58 7.56Q214.59 7.73 214.71 7.97L214.71 7.97L214.71 7.97Q214.83 8.22 215.08 8.44L215.08 8.44L215.08 8.44Q215.33 8.65 215.73 8.81L215.73 8.81L215.73 8.81Q216.13 8.96 216.71 8.96L216.71 8.96L216.71 8.96Q217.24 8.96 217.68 8.87L217.68 8.87L217.68 8.87Q218.12 8.78 218.43 8.67L218.43 8.67L218.43 8.67Q218.79 8.53 219.06 8.36L219.06 8.36L219.06 10.07L219.06 10.07Q219.06 10.08 218.84 10.17L218.84 10.17L218.84 10.17Q218.62 10.26 218.27 10.37L218.27 10.37L218.27 10.37Q217.91 10.47 217.45 10.56L217.45 10.56L217.45 10.56Q216.99 10.65 216.51 10.65ZM214.58 6.13L217.35 6.13L217.35 6.13Q217.35 5.89 217.28 5.63L217.28 5.63L217.28 5.63Q217.21 5.36 217.04 5.14L217.04 5.14L217.04 5.14Q216.87 4.91 216.61 4.77L216.61 4.77L216.61 4.77Q216.34 4.62 215.95 4.62L215.95 4.62L215.95 4.62Q215.56 4.62 215.29 4.77L215.29 4.77L215.29 4.77Q215.03 4.91 214.87 5.14L214.87 5.14L214.87 5.14Q214.72 5.36 214.65 5.63L214.65 5.63L214.65 5.63Q214.58 5.89 214.58 6.13L214.58 6.13ZM226.17 3.04L226.04 5.22L226.04 5.22Q225.23 5.04 224.73 5.24L224.73 5.24L224.73 5.24Q224.22 5.43 223.94 5.81L223.94 5.81L223.94 5.81Q223.65 6.19 223.55 6.64L223.55 6.64L223.55 6.64Q223.44 7.10 223.44 7.41L223.44 7.41L223.44 10.50L220.95 10.50L220.95 3.22L222.87 3.22L223.24 4.55L223.24 4.55Q223.24 4.55 223.37 4.31L223.37 4.31L223.37 4.31Q223.50 4.07 223.83 3.79L223.83 3.79L223.83 3.79Q224.17 3.51 224.74 3.28L224.74 3.28L224.74 3.28Q225.30 3.04 226.17 3.04L226.17 3.04Z"></path></g><!----><g data-v-423bf9ae="" id="23c0220b-7924-4c0d-a6b5-49debbfe4abf" transform="matrix(2.8125,0,0,2.8125,0,0)" stroke="none" fill="#5BC0EB"><path d="M9.382 8.675h13.943v13.943L32 31.293V0H.707zM22.618 23.325H8.675V9.382L0 .707V32h31.293z"></path></g><!----></svg>